<svg width="102" height="36" viewBox="0 0 102 36" fill="none" xmlns="http://www.w3.org/2000/svg">
<g clip-path="url(#clip0_5523_150)">
<path d="M80.159 24.4116V7.00062H82.298V13.6016C83.1414 12.375 84.4447 11.7616 86.208 11.7616C87.5727 11.7616 88.7227 12.2063 89.658 13.0956C90.5934 13.985 91.061 15.2653 91.061 16.9366V24.4116H88.876V17.5576C88.876 16.377 88.5847 15.4493 88.002 14.7746C87.45 14.1306 86.6987 13.8086 85.748 13.8086C84.7514 13.8086 83.9387 14.1536 83.31 14.8436C82.6814 15.549 82.367 16.4536 82.367 17.5576V24.4116H80.159ZM94.5619 24.4116V12.0836H96.6549V13.9006C97.3755 12.4746 98.5562 11.7616 100.197 11.7616C100.642 11.7616 101.125 11.823 101.646 11.9456L101.439 14.0846C101.01 13.9466 100.58 13.8776 100.151 13.8776C99.1389 13.8776 98.3339 14.215 97.7359 14.8896C97.0919 15.595 96.7699 16.5916 96.7699 17.8796V24.4116H94.5619Z" fill="black"/>
<path d="M70.631 9.07296C71.2211 9.07296 71.885 9.22049 72.6226 9.5893L73.5815 7.2289C72.4751 6.63881 71.3687 6.34375 70.1885 6.34375C67.238 6.34375 65.1726 8.11405 65.1726 11.2858V11.8759H63.1811V14.3838H65.1726V24.4155H68.1969V14.3838H72.1063V11.8759H68.1969V11.3596C68.1969 9.81058 69.082 9.07296 70.631 9.07296Z" fill="black"/>
<path d="M61.4108 11.8022H58.3865V24.3417H61.4108V11.8022Z" fill="black"/>
<path d="M59.9355 10.327C61.0419 10.327 61.8533 9.51558 61.8533 8.40915C61.8533 7.30272 61.0419 6.49133 59.9355 6.49133C58.8291 6.49133 58.0177 7.30272 58.0177 8.40915C58.0177 9.51558 58.8291 10.327 59.9355 10.327Z" fill="black"/>
<path d="M55.2886 6.78638H52.2643V24.3418H55.2886V6.78638Z" fill="black"/>
<path d="M46.5109 11.7284V13.0561C45.3307 12.0972 44.0767 11.5809 42.454 11.5809C38.6921 11.5809 35.8892 14.3101 35.8892 18.1457C35.8892 21.9076 38.5446 24.7105 42.454 24.7105C44.003 24.7105 45.3307 24.1942 46.5109 23.1615V24.4155H49.3876V11.8022H46.5109V11.7284ZM42.6752 22.0551C40.2411 22.0551 38.6921 20.2848 38.6921 18.0719C38.6921 15.8591 40.2411 14.0888 42.6752 14.0888C45.0356 14.0888 46.5847 15.8591 46.5847 18.0719C46.6584 20.2848 45.0356 22.0551 42.6752 22.0551Z" fill="black"/>
<path d="M20.0301 9.51532H15.3094L8.96582 24.7841H13.0227L17.6698 12.9821L22.243 24.7841H26.2999L20.0301 9.51532Z" fill="#0046FD"/>
<path d="M28.0702 28.6197C26.89 29.5048 25.5623 30.1687 24.0871 30.7588C16.4158 33.783 7.8594 30.6113 4.90891 23.4563C1.95843 16.2276 5.64653 7.74502 13.3178 4.72077C14.8668 4.13067 16.4158 3.76186 17.9648 3.61434L16.4896 0C14.793 0.147524 13.0965 0.590083 11.4737 1.25394C2.03219 5.01581 -2.46729 15.7113 1.36834 24.9316C5.13021 34.1518 15.752 38.3563 25.1935 34.6682C26.7425 34.0781 28.2915 33.2667 29.5454 32.3816L28.0702 28.6197Z" fill="#0046FD"/>
</g>
<defs>
<clipPath id="clip0_5523_150">
<rect width="102" height="36" fill="white"/>
</clipPath>
</defs>
</svg>
